<svg width="18" height="17" viewBox="0 0 18 17" fill="none" xmlns="http://www.w3.org/2000/svg">
<path d="M4.02708 0L13.9437 9.91667L15.7104 8.15L16.8854 9.325L14.8271 11.3833L17.4771 14.0333C17.8021 14.3583 17.8021 14.8833 17.4771 15.2083L16.8854 15.8C16.5604 16.125 16.0354 16.125 15.7104 15.8L13.0271 13.1583L10.9937 15.2167L9.81875 14.0417L11.5854 12.275L1.66875 2.35833V0H4.02708ZM12.1021 6.3L16.0521 2.35V0H13.6937L9.74375 3.95L12.1021 6.3ZM7.97708 10.4667L5.61875 8.075L3.77708 9.91667L2.01042 8.15L0.835417 9.325L2.89375 11.3833L0.24375 14.0417C-0.08125 14.3667 -0.08125 14.8917 0.24375 15.2167L0.835417 15.8083C1.16042 16.1333 1.68542 16.1333 2.01042 15.8083L4.69375 13.1583L6.72708 15.2167L7.90208 14.0417L6.13542 12.275L7.97708 10.4667Z" fill="white"/>
</svg>
