<svg width="17" height="17" viewBox="0 0 17 17" fill="none" xmlns="http://www.w3.org/2000/svg">
<path d="M10.1583 10.1583L3.33333 13.3333L6.50833 6.50833L13.3333 3.33333M8.33333 0C7.23898 0 6.15535 0.215548 5.1443 0.634337C4.13326 1.05313 3.2146 1.66696 2.44078 2.44078C0.877974 4.00358 0 6.1232 0 8.33333C0 10.5435 0.877974 12.6631 2.44078 14.2259C3.2146 14.9997 4.13326 15.6135 5.1443 16.0323C6.15535 16.4511 7.23898 16.6667 8.33333 16.6667C10.5435 16.6667 12.6631 15.7887 14.2259 14.2259C15.7887 12.6631 16.6667 10.5435 16.6667 8.33333C16.6667 7.23898 16.4511 6.15535 16.0323 5.1443C15.6135 4.13326 14.9997 3.2146 14.2259 2.44078C13.4521 1.66696 12.5334 1.05313 11.5224 0.634337C10.5113 0.215548 9.42768 0 8.33333 0ZM8.33333 7.41667C8.09022 7.41667 7.85706 7.51324 7.68515 7.68515C7.51324 7.85706 7.41667 8.09022 7.41667 8.33333C7.41667 8.57645 7.51324 8.80961 7.68515 8.98151C7.85706 9.15342 8.09022 9.25 8.33333 9.25C8.57645 9.25 8.80961 9.15342 8.98151 8.98151C9.15342 8.80961 9.25 8.57645 9.25 8.33333C9.25 8.09022 9.15342 7.85706 8.98151 7.68515C8.80961 7.51324 8.57645 7.41667 8.33333 7.41667Z" fill="white"/>
</svg>
