<svg width="17" height="18" viewBox="0 0 17 18" fill="none" xmlns="http://www.w3.org/2000/svg">
<path d="M13.1188 2.575L11.0104 4.19167L11.7688 6.74167L9.57708 5.23333L7.38542 6.74167L8.14375 4.19167L6.03542 2.575L8.69375 2.5L9.57708 0L10.4604 2.5L13.1188 2.575ZM16.0354 8.33333L14.6688 9.375L15.1604 11.025L13.7438 10.05L12.3271 11.025L12.8188 9.375L11.4521 8.33333L13.1688 8.29167L13.7438 6.66667L14.3188 8.29167L16.0354 8.33333ZM14.1354 12.4583C14.8271 12.3917 15.5688 13.375 15.1271 14C14.8604 14.375 14.5771 14.725 14.2271 15.0583C10.9688 18.3333 5.69375 18.3333 2.44375 15.0583C-0.814583 11.8083 -0.814583 6.525 2.44375 3.275C2.77708 2.94167 3.12708 2.64167 3.50208 2.375C4.12708 1.93333 5.11042 2.675 5.04375 3.36667C4.81875 5.75 5.61875 8.225 7.45208 10.05C9.27708 11.8833 11.7438 12.6833 14.1354 12.4583ZM12.7688 14.1417C10.4104 14.0083 8.07708 13.0333 6.26875 11.25C4.46042 9.425 3.49375 7.08333 3.36042 4.73333C1.01875 7.35 1.11042 11.3667 3.61875 13.8833C6.13542 16.3917 10.1521 16.4833 12.7688 14.1417Z" fill="white"/>
</svg>
